HIERARCHY
ROOT Hips
{
	OFFSET -14.64140 90.27770 -84.91600
	CHANNELS 6 Xposition Yposition Zposition Zrotation Xrotation Yrotation
	JOINT Spine
	{
		OFFSET 0.00000 13.20850 -1.60436
		CHANNELS 3 Zrotation Xrotation Yrotation
		JOINT Spine1
		{
			OFFSET 0.00000 8.61716 0.00000
			CHANNELS 3 Zrotation Xrotation Yrotation
			JOINT Spine2
			{
				OFFSET 0.00000 8.61717 0.00000
				CHANNELS 3 Zrotation Xrotation Yrotation
				JOINT Spine3
				{
					OFFSET 0.00000 8.61717 0.00000
					CHANNELS 3 Zrotation Xrotation Yrotation
					JOINT Neck
					{
						OFFSET 0.00000 11.07920 1.10792
						CHANNELS 3 Zrotation Xrotation Yrotation
						JOINT Neck1
						{
							OFFSET 0.00000 7.08032 0.00000
							CHANNELS 3 Zrotation Xrotation Yrotation
							JOINT Head
							{
								OFFSET 0.00000 7.08031 0.00000
								CHANNELS 3 Zrotation Xrotation Yrotation
								End site
								{
									OFFSET 0.00000 0.00000 0.00000
								}
							}
						}
					}
					JOINT RightShoulder
					{
						OFFSET -0.01000 7.91373 5.19711
						CHANNELS 3 Zrotation Xrotation Yrotation
						JOINT RightArm
						{
							OFFSET -18.41580 0.00000 0.00000
							CHANNELS 3 Zrotation Xrotation Yrotation
							JOINT RightForeArm
							{
								OFFSET -29.11090 0.00000 0.00000
								CHANNELS 3 Zrotation Xrotation Yrotation
								JOINT RightHand
								{
									OFFSET -24.65040 0.00000 0.00000
									CHANNELS 3 Zrotation Xrotation Yrotation
									JOINT RightHandThumb1
									{
										OFFSET -5.35114 -0.85590 3.97906
										CHANNELS 3 Zrotation Xrotation Yrotation
										JOINT RightHandThumb2
										{
											OFFSET -4.52789 0.00000 0.00000
											CHANNELS 3 Zrotation Xrotation Yrotation
											JOINT RightHandThumb3
											{
												OFFSET -2.46976 0.00000 0.00000
												CHANNELS 3 Zrotation Xrotation Yrotation
												End site
												{
													OFFSET 0.00000 0.00000 0.00000
												}
											}
										}
									}
									JOINT RightHandIndex1
									{
										OFFSET -14.26970 0.00000 2.88139
										CHANNELS 3 Zrotation Xrotation Yrotation
										JOINT RightHandIndex2
										{
											OFFSET -5.48836 0.00000 0.00000
											CHANNELS 3 Zrotation Xrotation Yrotation
											JOINT RightHandIndex3
											{
												OFFSET -3.01859 0.00000 0.00000
												CHANNELS 3 Zrotation Xrotation Yrotation
												End site
												{
													OFFSET 0.00000 0.00000 0.00000
												}
											}
										}
									}
									JOINT RightHandMiddle1
									{
										OFFSET -14.26970 0.00000 -0.09147
										CHANNELS 3 Zrotation Xrotation Yrotation
										JOINT RightHandMiddle2
										{
											OFFSET -6.17441 0.00000 0.00000
											CHANNELS 3 Zrotation Xrotation Yrotation
											JOINT RightHandMiddle3
											{
												OFFSET -3.56743 0.00000 0.00000
												CHANNELS 3 Zrotation Xrotation Yrotation
												End site
												{
													OFFSET 0.00000 0.00000 0.00000
												}
											}
										}
									}
									JOINT RightHandRing1
									{
										OFFSET -12.69180 0.00000 -3.06433
										CHANNELS 3 Zrotation Xrotation Yrotation
										JOINT RightHandRing2
										{
											OFFSET -5.62556 0.00000 0.00000
											CHANNELS 3 Zrotation Xrotation Yrotation
											JOINT RightHandRing3
											{
												OFFSET -3.56744 0.00000 0.00000
												CHANNELS 3 Zrotation Xrotation Yrotation
												End site
												{
													OFFSET 0.00000 0.00000 0.00000
												}
											}
										}
									}
									JOINT RightHandPinky1
									{
										OFFSET -11.11390 0.00000 -6.03719
										CHANNELS 3 Zrotation Xrotation Yrotation
										JOINT RightHandPinky2
										{
											OFFSET -4.52789 0.00000 0.00000
											CHANNELS 3 Zrotation Xrotation Yrotation
											JOINT RightHandPinky3
											{
												OFFSET -2.46976 0.00000 0.00000
												CHANNELS 3 Zrotation Xrotation Yrotation
												End site
												{
													OFFSET 0.00000 0.00000 0.00000
												}
											}
										}
									}
								}
							}
						}
					}
					JOINT LeftShoulder
					{
						OFFSET 0.01000 7.91373 5.19711
						CHANNELS 3 Zrotation Xrotation Yrotation
						JOINT LeftArm
						{
							OFFSET 18.41580 0.00000 0.00000
							CHANNELS 3 Zrotation Xrotation Yrotation
							JOINT LeftForeArm
							{
								OFFSET 29.11090 0.00000 0.00000
								CHANNELS 3 Zrotation Xrotation Yrotation
								JOINT LeftHand
								{
									OFFSET 24.65040 0.00000 0.00000
									CHANNELS 3 Zrotation Xrotation Yrotation
									JOINT LeftHandThumb1
									{
										OFFSET 5.35114 -0.85590 3.97906
										CHANNELS 3 Zrotation Xrotation Yrotation
										JOINT LeftHandThumb2
										{
											OFFSET 4.52789 0.00000 0.00000
											CHANNELS 3 Zrotation Xrotation Yrotation
											JOINT LeftHandThumb3
											{
												OFFSET 2.46977 0.00000 0.00000
												CHANNELS 3 Zrotation Xrotation Yrotation
												End site
												{
													OFFSET 0.00000 0.00000 0.00000
												}
											}
										}
									}
									JOINT LeftHandIndex1
									{
										OFFSET 14.26970 0.00000 2.88139
										CHANNELS 3 Zrotation Xrotation Yrotation
										JOINT LeftHandIndex2
										{
											OFFSET 5.48836 0.00000 0.00000
											CHANNELS 3 Zrotation Xrotation Yrotation
											JOINT LeftHandIndex3
											{
												OFFSET 3.01859 0.00000 0.00000
												CHANNELS 3 Zrotation Xrotation Yrotation
												End site
												{
													OFFSET 0.00000 0.00000 0.00000
												}
											}
										}
									}
									JOINT LeftHandMiddle1
									{
										OFFSET 14.26970 0.00000 -0.09147
										CHANNELS 3 Zrotation Xrotation Yrotation
										JOINT LeftHandMiddle2
										{
											OFFSET 6.17440 0.00000 0.00000
											CHANNELS 3 Zrotation Xrotation Yrotation
											JOINT LeftHandMiddle3
											{
												OFFSET 3.56744 0.00000 0.00000
												CHANNELS 3 Zrotation Xrotation Yrotation
												End site
												{
													OFFSET 0.00000 0.00000 0.00000
												}
											}
										}
									}
									JOINT LeftHandRing1
									{
										OFFSET 12.69180 0.00000 -3.06433
										CHANNELS 3 Zrotation Xrotation Yrotation
										JOINT LeftHandRing2
										{
											OFFSET 5.62556 0.00000 0.00000
											CHANNELS 3 Zrotation Xrotation Yrotation
											JOINT LeftHandRing3
											{
												OFFSET 3.56744 0.00000 0.00000
												CHANNELS 3 Zrotation Xrotation Yrotation
												End site
												{
													OFFSET 0.00000 0.00000 0.00000
												}
											}
										}
									}
									JOINT LeftHandPinky1
									{
										OFFSET 11.11390 0.00000 -6.03719
										CHANNELS 3 Zrotation Xrotation Yrotation
										JOINT LeftHandPinky2
										{
											OFFSET 4.52789 0.00000 0.00000
											CHANNELS 3 Zrotation Xrotation Yrotation
											JOINT LeftHandPinky3
											{
												OFFSET 2.46976 0.00000 0.00000
												CHANNELS 3 Zrotation Xrotation Yrotation
												End site
												{
													OFFSET 0.00000 0.00000 0.00000
												}
											}
										}
									}
								}
							}
						}
					}
					JOINT pCube4
					{
						OFFSET 0.00000 10.91090 1.10792
						CHANNELS 3 Zrotation Xrotation Yrotation
						End site
						{
							OFFSET 0.00000 0.00000 0.00000
						}
					}
				}
			}
		}
	}
	JOINT RightUpLeg
	{
		OFFSET -9.98441 0.00000 0.00000
		CHANNELS 3 Zrotation Xrotation Yrotation
		JOINT RightLeg
		{
			OFFSET 0.00000 -42.11790 0.00000
			CHANNELS 3 Zrotation Xrotation Yrotation
			JOINT RightFoot
			{
				OFFSET 0.00000 -45.00020 -0.00001
				CHANNELS 3 Zrotation Xrotation Yrotation
				JOINT RightForeFoot
				{
					OFFSET 0.00000 -3.74820 0.00000
					CHANNELS 3 Zrotation Xrotation Yrotation
					JOINT RightToeBase
					{
						OFFSET 0.00000 0.06325 14.43120
						CHANNELS 3 Zrotation Xrotation Yrotation
						End site
						{
							OFFSET 0.00000 0.00000 0.00000
						}
					}
				}
			}
		}
	}
	JOINT LeftUpLeg
	{
		OFFSET 9.98441 0.00000 0.00000
		CHANNELS 3 Zrotation Xrotation Yrotation
		JOINT LeftLeg
		{
			OFFSET 0.00000 -42.11800 0.00000
			CHANNELS 3 Zrotation Xrotation Yrotation
			JOINT LeftFoot
			{
				OFFSET 0.00000 -45.00070 0.00000
				CHANNELS 3 Zrotation Xrotation Yrotation
				JOINT LeftForeFoot
				{
					OFFSET 0.00000 -3.74824 0.00000
					CHANNELS 3 Zrotation Xrotation Yrotation
					JOINT LeftToeBase
					{
						OFFSET 0.00000 0.06325 14.43110
						CHANNELS 3 Zrotation Xrotation Yrotation
						End site
						{
							OFFSET 0.00000 0.00000 0.00000
						}
					}
				}
			}
		}
	}
}
MOTION
Frames: 4
Frame Time: 0.050000
0.03953376185623735 0.011616727817650467 -0.0045722322645600855 0.012027847901859963 -0.04820952406816167 -0.04217973643071639 2.415824550704166 1.0983807168559772 -1.8054047524802397 -0.808874175226539 3.4222535341886027 0.4207654877211163 -0.9288552007496966 -1.6294297439716232 0.5768476826435118 -0.668177903470286 -0.3404480445964024 -0.3946858522824008 0.2887289779774814 13.111946221306154 -1.3224532943496998 0.5814754700957278 0.5645796593005428 -3.6127281141649683 1.0943944430381387 -14.771068388062908 -0.3238703917228784 -9.659699373205418 3.4039613278638416 -15.403841045559792 75.76995197148827 4.3130567968906774 22.091053381642784 41.82829182068463 9.918977235938549 94.33829164797743 18.140897767081338 -0.4096023318336441 -7.520949455549302 4.513183731881231 -0.1506414006799658 -1.560185222918772 -0.022985383478787178 0.03625519996161404 -56.20329873844308 0.015946176792206935 0.005946921571288289 -56.257595674159035 -38.744193462797924 0.001777088339299555 -0.034095078384583984 0.006620828264937006 0.035874864603761734 -0.04294330593398012 -0.01846187716443817 -0.04423198418476899 -0.03555726891251218 -36.71629547983482 0.024682709345792846 0.04915501891652427 -0.04260858662268248 0.024188242299206394 0.00017211283965392203 -0.015489107414005646 -0.0452020266431941 -0.009328054638421566 -19.70990325239719 -0.0001648697956765507 -0.00040743112194937484 -0.029298674976131065 0.04603591547998094 -0.04347406387160984 -0.048585519877006704 0.023323329103439615 -0.010169430419731383 24.04647226004298 0.032914387320117075 0.004758104536922964 28.86291927848719 -0.013778211774591381 0.010145266380258975 28.86692081475616 0.046698689536034725 -0.031553114622671845 9.52941334034746 2.295167948383827 13.23631688975983 -73.72808430400852 22.94208596533083 -19.735530894492904 -55.67275122318034 13.086098871845493 -95.96655100310097 -18.61499633751279 -8.369707132329856 6.50611263579547 -0.506120173409386 0.06468124314006579 -8.141992168552905 0.0297367245250872 -0.025130434591508276 44.561588696767814 0.02814157956862543 0.0022153579725829667 44.56191528919859 12.433873203006598 0.048815549898324276 0.022819431589027838 0.022381619917467902 0.014576846720552426 0.03373489697015617 -0.043740084956318974 -0.044740473448768955 0.03755031459816164 11.12370152085647 0.02341272637280749 0.009987671456253174 -0.022367451772255617 0.004016057649601442 0.011670330612720069 -0.04533258597518267 -0.006952457039729006 -0.01110370936791129 4.780758882480661 -0.024155302801107236 0.03611206432575775 -0.02095461588919505 -0.014866990566834454 -0.015578332582813444 0.014922885781209518 -0.0243095003535533 0.02566787334819082 -5.591594061377295 -0.01300379345163233 -0.004520555752904821 -6.754061104375563 -0.04597102065161543 -0.015219519283627478 -6.6773527402784545 -0.011097919690782096 0.028016686258722678 -0.018996513545765027 -0.0025368201018784063 -0.026624332404411262 8.078870458971867 3.5063158908418366 -19.228081197597984 -0.0255737446479744 10.393086736372029 0.05867058159435466 -5.593461912758373 -15.657245866841752 3.1826274739850717 0.030274727402857672 6.746220208573223e-05 -0.03795048405844532 -0.02378446051697091 4.700638742993245 -0.02963976334391598 12.426072190425645 -8.271852983754464 6.888224096834126 -0.04375960985520497 46.3816276602782 0.017031905422555234 -4.34019367731806 -14.74684867332092 -3.8299572866249285 0.006508352974774679 0.02718847920061414 -0.0094511050713584 0.03264520453621752 -10.745075972253957 -0.03539914581480555 
0.00417756836286069 0.017287727500187294 -0.03553637439620907 0.001242865714981071 0.02689806142620918 -0.020750942206156073 2.0684783112199945 1.0199217270322654 -1.7452898974925086 -0.8136643868883362 3.377180770905574 0.4046256617129279 -0.9343150023383167 -1.6629309659492286 0.7582320697231714 -0.7433387525279957 -0.3787161489107619 -0.4288494088944771 0.4430282775126406 13.295856912991693 -1.3523714416234747 0.5940890537733287 0.6275435871278388 -3.802802452161268 1.0836213702627235 -14.734811703537423 -0.3301698287338939 -9.87329747102022 3.52739609387993 -15.295157664886451 75.35861966593131 1.090624593971114 24.18238207834564 41.83052387333228 9.576374227063292 95.2536979696243 17.520666263096015 -0.45783552491538054 -7.258336697704787 4.525877170855128 -0.12038248372363562 -1.610990156888577 0.0012871513614210572 0.039258947444265585 -56.267003617534755 0.02571621943719244 -0.013915519424823039 -56.248137830493654 -38.728253158938124 0.03781045463198546 0.027126998012336232 -0.015235894345273442 0.023180489722550348 0.018266672046195077 -0.0241199915356702 0.0012055519211746075 0.032545211729373025 -36.71397354270366 0.005867784778345528 -0.041438693000238405 -0.03883147920400312 -0.0055534793811156296 0.01753921782202152 0.029440945394972683 0.02929194776128531 -0.018518950675158376 -19.736555217654065 0.03548496712595774 -0.0004173987406187267 0.0019056587013248428 0.048110649957021495 -0.005863488565479948 0.02136956814866522 -0.04204436839902293 0.026225548902677632 24.011643979775773 -0.0293739753048596 0.03277200896162994 28.863312811361386 4.214126744438197e-05 0.04020793678466546 28.836674089076812 -0.0002416087606177411 -0.03522736199247417 9.315440855881027 2.2316128451173176 13.212472181373789 -73.50408185177395 23.500535489127238 -18.97475483745169 -54.049545828432535 12.669486700352856 -95.88513506404051 -18.055323119847323 -7.850864819185936 5.975655462049679 -0.4346549125139539 0.06436298088895706 -8.173581221040097 0.005407563080386424 0.022426353047481456 44.58636940546118 -0.010145334445773063 -0.02848573859547647 44.52557776608854 12.453966990303352 0.011680529436614752 -0.03306573404666233 0.02911418940311144 -0.014461142782586032 -0.02369574244668268 0.04298809069713088 0.03243647932142914 -0.010687851379152125 11.07879699381771 0.024976861478245738 0.01806568730789396 0.006387619967568604 -0.025841099282737413 -0.0005914585016323116 0.040082377274179376 -0.026849655617081095 0.010993235782782763 4.73238017290048 -0.040253336452010645 0.005384633122692285 0.023562891851613334 -0.03405798681077632 -0.0377064012036074 -0.02904583460708242 0.037301678937366 -0.03285373148201255 -5.60450817422916 -0.013063494257714517 0.012584570534849862 -6.716820540624407 -0.02053915513973991 -0.004540809367753534 -6.738895003605689 -0.027052539330000576 0.026097128398420776 0.005095934579130734 -0.04333614002422965 0.01893522289468276 8.008505620613755 3.534755838332331 -19.240392641373937 -0.013611579402095708 10.432527043784503 0.03301383889087825 -5.637275283855302 -15.638381933633884 3.1992866437606557 -0.022989630665445144 -0.04795813616818679 -0.028572343833231574 0.013250486679516204 4.681212606689915 0.01904484049339218 12.445746175847775 -8.20114247087754 6.843225978077664 -0.03430997190153428 46.372449518128455 0.006141645771673143 -4.295349497839469 -14.748633831369172 -3.815901067298339 0.034420727416195215 0.02736863969817353 -0.0025316027387226312 -0.026466350183455774 -10.764198192021363 0.04605124022993657 
0.022503333488979402 -0.03277439558474813 -0.036599083163239905 -0.004814820530411991 0.012251180962943576 0.02679783822970827 1.7515995175118835 0.9260608914683808 -1.6883691873356959 -0.8015134857046 3.4041203317793105 0.36472107174575574 -0.9620103016857413 -1.6935676611261712 0.8568185233782064 -0.8725885016605421 -0.37812830568399813 -0.3673759803581715 0.5065782707795885 13.391042297486749 -1.4234444372619204 0.5628066902891402 0.6977647654852628 -4.006486410796899 1.1120454181014343 -14.589567098611479 -0.3705452727512635 -10.069292878378059 3.5375660062478866 -15.19244010912148 74.99722592048883 -1.3786272588925335 26.524960609976716 40.80035913378643 9.320789788298725 96.40017959343317 16.928250213374568 -0.48794952868678443 -6.923440160060007 4.571042559872909 -0.10437543420057167 -1.5584364535488415 0.02113529206574242 -0.04446454267548237 -56.18601203669193 0.008024708293768836 0.04319731429245055 -56.18726885489652 -38.81177128764283 -0.02778278739260767 0.006122664948072797 -0.029297689565287797 0.02407458458932497 -0.03529738015557974 -0.03961501027840892 -0.007099407781221716 0.011479453399105603 -36.64541505621788 0.02976549906962768 -0.026220783152109708 -0.01483852591381726 -0.04418473193210397 -0.003646605143838196 0.028847922677860384 0.03497280877104346 0.03224420985575744 -19.728416378927704 -0.010855752141628284 -0.008675752967629785 0.028710841181037314 0.011967182125618193 0.025386185925900622 0.027330843524783776 -0.002905087447974198 0.006484035742102792 24.06462983105172 0.004209614289197764 0.004781759507348715 28.887276883255126 -0.04879802784726457 0.006555796657997246 28.882563364175677 0.028275230639451965 -0.04101462625896268 9.132456216643787 2.2283384979566088 13.154392663825861 -73.22808195385994 24.1579547125586 -18.36948194915218 -51.12918396630947 12.27687782908837 -95.8566680709389 -17.58997251291194 -7.463536907435213 5.510307698344909 -0.5118724232052074 0.049657266799815254 -8.145718502261829 -0.014788722301212798 -0.01209609077105689 44.57643033073696 0.021328774749135356 0.02673783934788416 44.56437487276241 12.471920688323662 -0.03348438548056608 0.034935300708078716 0.004837283016858424 -0.04176651806326267 0.007488884743113087 0.012311714969411304 -0.033355970533726076 0.004933778941105918 11.132127884603536 0.019879963568349906 -0.006760203029203958 -0.013237993947139494 -0.04402969020274933 0.03626588300632776 -0.03244592688471006 -0.004999601837026292 0.0009445569260439565 4.731643368434492 0.010134080390148318 -0.02940864213759312 -0.006114336216222776 -0.03156262653931005 0.04862665085305361 -0.016937644365067547 0.005197791252248657 0.01712398977537097 -5.612442247708268 -0.011071543284523108 0.022794838394397287 -6.720853266107214 -0.04418467583208928 -0.04610375928111196 -6.696064078934999 0.04057550710848065 -0.015216952043982277 0.04246901437509081 -0.01844544785158062 0.02393984813841082 8.045336611554863 3.459771148184604 -19.249000138590137 -0.037608982702539075 10.358207706563894 0.03577890799817885 -5.670504953250766 -15.616825984143109 3.2080053444456387 -0.01466108684593003 -0.006093675342442036 0.01702416816997488 0.0036764168003214416 4.671443129059333 0.006913135771670927 12.47248843178434 -8.287521778165722 6.863547317593884 0.04500874383345479 46.40836122432134 0.021860404359016098 -4.3478863909402214 -14.78377086146444 -3.8080808739327168 0.04990357327420401 0.004465340970822505 0.03032496851076259 -0.04492937046338127 -10.762736971095597 -0.010707702538735056 
-0.037055423740413165 -0.01577294375421671 -0.000768468379777124 0.004824206774805945 0.020494354101233403 0.018366799911093298 1.6522638670639231 0.8653458933147813 -1.6475603063273392 -0.7752441501357509 3.3511080555401143 0.37550415395376335 -1.017327060439391 -1.7129346866977966 1.029784080109436 -0.9539681181189058 -0.36359560996092655 -0.3460530081528326 0.48555541345754727 13.530971569690063 -1.3462814559923957 0.6489356848239215 0.6648982848454521 -3.941548798330704 1.1514605838015326 -14.529904885401187 -0.29952021345620994 -10.343492982765268 3.646026262203711 -15.146807237165389 75.11468970529158 -2.734814939993001 28.498950743693474 40.35341848652211 9.334520787809641 98.08556459759946 16.45091580546482 -0.5300319573688537 -6.776279201540518 4.540217671043985 -0.11728621802595032 -1.6182415850164646 0.04787560110587832 -0.0060783264311975 -56.18592531583222 0.012018623546695304 0.03293588952634476 -56.24515480201006 -38.77160264126501 -0.04392695443980586 0.004711400533027777 -0.041961627931382355 0.04133214142399761 -0.04660768533817163 -0.009757731155568905 0.005058668940774634 0.013266555380993875 -36.73433160406352 0.02622055104825803 0.04170536967597296 0.013962162833514626 0.006048416167868822 0.02407915806843361 0.013990172941673318 -0.0142445112884785 0.01130108408250427 -19.77747791726825 -0.04045966107940265 -0.010261281732763344 0.03995989781831797 -0.046840387573821245 -0.017387719226603284 0.030980321606744323 -0.014557707065308493 0.011065304374143598 24.077009314720907 -0.018078038565085986 -0.04062409745174637 28.858386565082764 -0.03799243404054813 0.00039833380946864387 28.86593278530979 -0.021599229777551833 -0.019954166232776037 9.130693490510003 2.223183626418 13.14285800452941 -73.125572836169 24.675900476927644 -18.272575032146577 -49.41618843805061 12.302120126181435 -97.07131480144696 -17.442527016778183 -7.427403786779442 5.33675927977844 -0.4247803538755395 0.1018443265871442 -8.124445886603816 0.025200881087264843 0.033716186528214086 44.55498555761605 -0.02007708204203412 -0.022356228893116323 44.56890462070352 12.50478926338092 -0.010980222356749201 0.043504798934720666 0.03126538270555167 -0.019381788854833874 0.043641097389196346 0.013057589505045637 0.011332728039654207 0.033232269302091735 11.151754157204257 -0.004078800641851702 0.03137036442328425 -0.0028392723459628676 -0.039238194195085334 -0.017857263986131963 0.023984995254616434 -0.04394075234543685 -0.0313806791648507 4.735637721583036 0.010415275292569746 -0.022565801928806178 -0.03039246536836672 0.012791770532287245 0.02173586942548845 0.039088932605651244 -0.019762987954526082 -0.0030361798297067802 -5.5925414630333785 -0.02588190028558907 0.03411194357247896 -6.723409591741157 0.04502813001172978 -0.02482932694540401 -6.712845638275759 -0.0328727742235656 0.01433607443725392 0.014203052691679608 -0.03806134433297824 -0.0063334723977107625 8.080722864333767 3.495261591336458 -19.23126717296897 -0.0037695807262030268 10.413781117109037 0.03915737876859583 -5.632679383962772 -15.669172889497318 3.2408058514026594 0.04869331414277498 -0.002998060133907173 0.01009226643538607 -0.04495749482340019 4.656256361393816 -0.022207327862941415 12.448731727832355 -8.245529978006807 6.856526182113961 0.041498305781087555 46.37989118179311 -0.04671589867953025 -4.330966342644792 -14.748302811428362 -3.837444717950951 0.020769228212958783 -0.03155814548539305 0.04247651611286193 -0.0007471437602715666 -10.737245946676302 -0.015071948828046564 
